<svg xmlns="http://www.w3.org/2000/svg" width="1728" height="145" viewBox="0 0 1728 145" fill="none">
<path d="M9 104.013C38.2481 100.468 65.4924 92.0132 95 92.0132C118.778 92.0132 142.231 94.0132 166 94.0132C184.704 94.0132 203.407 94.0132 222.111 94.0132C231.481 94.0132 240.852 94.0132 250.222 94.0132C264.919 94.0132 278.99 98.0132 293.889 98.0132C316.93 98.0132 340.149 106.013 363.222 106.013C391.157 106.013 421.236 112.461 449 106.458C471.84 101.519 498.465 108.013 521.556 108.013C548.148 108.013 574.731 112.013 601.333 112.013C625.101 112.013 649.979 114.03 673.667 111.569C701.732 108.653 730.161 107.609 758.333 109.569C802.629 112.65 848.442 111.207 892.778 112.013C928.911 112.67 966.376 113.385 1002.22 109.013C1022.93 106.488 1044.04 108.008 1064.78 105.569C1084.74 103.22 1104.42 100.013 1124.56 100.013C1165.17 100.013 1205.26 97.7133 1245.78 96.1243C1285.29 94.5747 1324.68 92.0132 1364.22 92.0132C1408.36 92.0132 1451.89 94.6357 1495.89 97.5687C1541.24 100.592 1586.03 98.0132 1631.44 98.0132C1667.34 98.0132 1703.48 102.013 1739 102.013" stroke="#E3D9D1" stroke-width="63" stroke-linecap="round"/>
<path d="M1353 53.3263L1343.82 59.6819L1341 82.2781L1499.53 93.5763L1556.37 78.7474L1552.49 69.9206L1542.96 66.3899L1537.66 60.7408L1533.78 56.1509L1524.95 48.3834L1516.48 44.8527L1508.36 38.1443L1505.88 33.5544L1500.94 29.6707L1493.88 25.7869L1487.17 20.4908L1482.23 15.5479L1469.87 25.7869L1456.45 38.1443L1441.27 46.9711L1434.21 52.2671L1431.39 49.7956L1427.5 44.8527L1422.21 33.5544L1417.97 27.9053L1411.61 24.0215L1405.61 17.3132L1401.37 11.311L1398.2 7.42725L1395.37 8.83953L1384.78 17.3132L1371.01 26.8461L1365.01 33.5544L1358.65 44.8527L1353 53.3263Z" fill="#E3D9D1"/>
<g clip-path="url(#clip0_2175_26)">
<path d="M1555.89 69.5805C1549.99 67.39 1543.93 65.4026 1539.31 60.9464C1537.05 58.7801 1535.13 56.3302 1533.05 54.0058C1531.17 51.9035 1529.02 50.0934 1526.65 48.5522C1521.96 45.4976 1516.7 43.4603 1512.25 40.0027C1509.87 38.1555 1508.12 35.9684 1506.31 33.5889C1504.42 31.0979 1502.2 29.3941 1499.5 27.8384C1496.34 26.0218 1493.22 24.1077 1490.65 21.5023C1488.15 18.9689 1485.66 16.4433 1483.34 13.7492C1482.68 12.9865 1481.46 13.2512 1480.82 13.8392C1478.22 16.2192 1475.78 18.7696 1473.19 21.1624C1470.67 23.4942 1468.04 25.6995 1465.43 27.9306C1460.44 32.1981 1455.25 36.7791 1449.45 39.948C1446.62 41.4939 1443.63 42.779 1440.88 44.4687C1438.41 45.9913 1436.21 47.8852 1434.23 50.0058C1433.89 50.3671 1433.56 50.7334 1433.23 51.097C1433.8 51.9561 1434.42 52.7844 1435.07 53.5793C1435.3 53.3498 1435.53 53.1203 1435.76 52.8907C1437.91 50.7936 1440.17 48.9455 1442.82 47.5125C1445.49 46.0655 1448.33 44.935 1450.98 43.4488C1456.6 40.2969 1460.86 35.4027 1465.6 31.1391C1468.47 28.5575 1471.34 25.9706 1474.3 23.5002C1476.67 21.5256 1479.14 19.6753 1481.56 17.7577C1481.6 17.9161 1481.67 18.0734 1481.8 18.2209C1484.36 21.2264 1487.71 25.5204 1485.32 29.5559C1483.43 32.7664 1479.03 34.5099 1475.96 36.3867C1474.12 37.5134 1472.29 38.6452 1470.48 39.8136C1468.86 40.855 1466.88 41.8561 1465.63 43.3533C1463.51 45.9028 1464.41 48.944 1466.46 51.1736C1468.78 53.7026 1472.82 54.3656 1474.65 57.3465C1476.49 60.3405 1475.97 64.0934 1478.76 66.6537C1480.01 67.7978 1481.6 68.311 1482.99 69.2316C1484.47 70.2156 1485.28 71.8151 1486.12 73.3229C1487.77 76.2837 1489.63 78.6425 1493.07 79.5589C1497.55 80.7501 1501.94 79.119 1506.38 78.7092C1511.18 78.2657 1515.89 79.2966 1520.07 81.6551C1520.99 82.1764 1521.72 80.7749 1520.84 80.2227C1517.64 78.2103 1514.05 76.9769 1510.27 76.6268C1506.02 76.2327 1502.04 77.6172 1497.83 77.8132C1495.93 77.9026 1493.98 77.6766 1492.31 76.6996C1490.7 75.7551 1489.89 74.0756 1489.22 72.4124C1488.6 70.8858 1488.04 69.3867 1487 68.0832C1485.88 66.6839 1484.48 65.9423 1482.9 65.1512C1481.2 64.2927 1480.3 63.3412 1479.49 61.6326C1478.79 60.1703 1478.27 58.6269 1477.45 57.2195C1475.66 54.1278 1472.64 53.2283 1469.79 51.4222C1468.31 50.4914 1466.54 48.8516 1466.86 46.9078C1467.15 45.1436 1470.11 43.982 1471.44 43.1347C1475.13 40.7851 1478.88 38.4387 1482.39 35.8289C1485.21 33.7316 1488.15 31.1179 1488.5 27.4164C1488.65 25.8678 1488.34 24.4023 1487.76 23.0212C1490.1 24.8589 1492.62 26.504 1495.23 28.0393C1498.12 29.7403 1501.41 30.9925 1503.7 33.5226C1505.74 35.7843 1507.23 38.351 1509.56 40.3814C1513.84 44.1169 1519.18 46.3116 1523.65 49.7819C1526.04 51.6394 1528.21 53.5499 1530.18 55.8515C1532.21 58.2231 1534.04 60.7886 1536.23 63.0156C1541.32 68.1775 1548.45 70.2332 1555.39 71.6266C1556.77 71.9024 1557.13 70.0371 1555.88 69.5726L1555.89 69.5805Z" fill="#373737"/>
<path d="M1492.22 29.7303C1490.63 29.254 1489.19 28.2928 1488.16 27.0023C1487.98 26.7821 1487.69 26.6992 1487.45 26.8943C1487.22 27.0893 1487.25 27.384 1487.43 27.6014C1488.62 29.0169 1490.24 30.0355 1492.03 30.5261C1492.54 30.6676 1492.72 29.8802 1492.22 29.7302L1492.22 29.7303Z" fill="#373737"/>
<path d="M1492.08 32.6939C1491.04 32.6327 1490.02 32.3093 1489.12 31.7899C1488.68 31.5364 1488.28 31.2309 1487.91 30.8843C1487.72 30.7097 1487.54 30.5242 1487.38 30.3275C1487.15 30.0532 1487.01 29.8264 1486.62 29.7923C1486.44 29.7775 1486.25 29.9547 1486.21 30.1213C1486.13 30.5162 1486.39 30.7732 1486.64 31.0415C1486.83 31.2428 1487.02 31.4304 1487.23 31.6096C1487.68 32.0012 1488.18 32.3404 1488.71 32.6227C1489.76 33.1822 1490.92 33.487 1492.11 33.5244C1492.66 33.5423 1492.61 32.7256 1492.08 32.6939Z" fill="#373737"/>
<path d="M1487.98 34.4368C1486.69 34.1607 1485.56 33.4869 1484.67 32.5084C1484.46 32.2708 1484.03 31.7716 1483.7 32.1247C1483.4 32.4473 1483.8 32.9099 1484.03 33.147C1484.5 33.634 1485.08 34.0423 1485.68 34.3622C1486.35 34.7219 1487.07 34.9812 1487.83 35.1062C1488.26 35.1812 1488.43 34.5276 1487.99 34.4341L1487.98 34.4368Z" fill="#373737"/>
<path d="M1484.97 34.9817C1484.88 34.9504 1484.79 34.919 1484.7 34.8876C1484.7 34.8876 1484.68 34.8827 1484.67 34.8778C1484.66 34.8728 1484.65 34.8705 1484.65 34.8706C1484.6 34.8511 1484.55 34.8289 1484.5 34.8095C1484.32 34.7359 1484.14 34.6543 1483.97 34.5698C1483.62 34.3958 1483.29 34.1888 1482.97 33.9794C1482.86 33.9137 1482.75 33.8965 1482.63 33.8768C1482.49 33.8526 1482.33 33.8528 1482.22 33.9659C1482.11 34.0927 1482.13 34.2678 1482.21 34.4064C1482.26 34.5058 1482.32 34.621 1482.4 34.6954C1482.55 34.8366 1482.77 34.946 1482.95 35.0515C1483.11 35.1495 1483.28 35.242 1483.46 35.3291C1483.88 35.5379 1484.32 35.7088 1484.76 35.8528C1484.99 35.9247 1485.26 35.747 1485.3 35.5215C1485.35 35.2665 1485.21 35.0611 1484.97 34.9817Z" fill="#373737"/>
<path d="M1472.96 45.8924C1472.57 45.7437 1472.15 45.7349 1471.74 45.6427C1471.36 45.555 1470.99 45.435 1470.64 45.2745C1469.91 44.9461 1469.26 44.487 1468.7 43.9152C1468.36 43.5674 1467.87 44.1101 1468.19 44.4585C1468.78 45.1012 1469.49 45.6327 1470.28 46.0097C1470.67 46.1981 1471.09 46.3566 1471.51 46.4747C1471.94 46.595 1472.43 46.7214 1472.89 46.6173C1473.2 46.5448 1473.27 46.0144 1472.95 45.8925L1472.96 45.8924Z" fill="#373737"/>
<path d="M1476.58 51.2826C1475.73 50.9134 1474.81 50.7545 1473.96 50.3398C1473.11 49.9224 1472.28 49.4537 1471.47 48.9575C1469.87 47.9701 1468.42 46.6304 1467.38 45.0657C1467.09 44.6257 1466.42 45.0467 1466.69 45.5037C1467.72 47.2766 1469.11 48.7623 1470.82 49.8922C1471.65 50.4382 1472.57 50.8477 1473.54 51.0985C1474.46 51.3373 1475.57 51.6521 1476.53 51.5138C1476.63 51.4994 1476.7 51.3396 1476.58 51.2854L1476.58 51.2826Z" fill="#373737"/>
<path d="M1477.93 55.0911C1477.4 54.9103 1476.81 54.9101 1476.26 54.8073C1475.69 54.7024 1475.13 54.5679 1474.59 54.3579C1473.5 53.9383 1472.53 53.2961 1471.72 52.475C1471.48 52.2382 1471.15 52.6074 1471.36 52.8501C1472.19 53.764 1473.22 54.5028 1474.35 54.9953C1474.9 55.2342 1475.49 55.44 1476.08 55.5521C1476.68 55.669 1477.36 55.7672 1477.95 55.5463C1478.18 55.4609 1478.16 55.1658 1477.93 55.0911Z" fill="#373737"/>
<path d="M1480.23 58.2849C1480.09 58.2099 1479.93 58.1996 1479.78 58.1758C1479.61 58.1526 1479.45 58.121 1479.27 58.1086C1478.99 58.0896 1478.7 58.0678 1478.41 58.0194C1477.81 57.9185 1477.22 57.7316 1476.66 57.4717C1476.31 57.3083 1476.03 57.8195 1476.38 58.0017C1476.97 58.3137 1477.6 58.5443 1478.25 58.6996C1478.57 58.776 1478.9 58.8334 1479.24 58.8589C1479.42 58.8711 1479.57 58.8549 1479.75 58.8326C1479.92 58.8105 1480.1 58.7906 1480.25 58.6948C1480.39 58.5963 1480.39 58.3725 1480.23 58.2875L1480.23 58.2849Z" fill="#373737"/>
<path d="M1446.82 47.7024C1446.27 47.5942 1445.68 47.4792 1445.18 47.2519C1444.66 47.0122 1444.21 46.6792 1443.82 46.2478C1443.68 46.0902 1443.4 46.1243 1443.27 46.2677C1443.11 46.4359 1443.15 46.6585 1443.29 46.8187C1443.71 47.302 1444.24 47.6961 1444.83 47.9657C1445.43 48.2452 1446.09 48.4189 1446.76 48.315C1446.91 48.2909 1447.04 48.2009 1447.05 48.0352C1447.07 47.8881 1446.97 47.7343 1446.82 47.7051L1446.82 47.7024Z" fill="#373737"/>
<path d="M1448.59 52.6129C1447.82 52.2888 1447.02 52.051 1446.24 51.7296C1445.48 51.4105 1444.73 51.0053 1444.05 50.5421C1442.68 49.6181 1441.41 48.3389 1440.64 46.882C1440.48 46.5917 1439.96 46.8234 1440.1 47.1276C1440.88 48.7977 1441.9 50.2403 1443.39 51.3574C1444.79 52.4159 1446.64 53.3811 1448.45 53.2017C1448.74 53.1729 1448.9 52.7431 1448.59 52.613L1448.59 52.6129Z" fill="#373737"/>
<path d="M1441.8 53.738C1441.69 53.5979 1441.61 53.4994 1441.44 53.4336C1441.29 53.3776 1441.15 53.3187 1441 53.2681C1440.76 53.1834 1440.52 53.0933 1440.29 52.9816C1439.78 52.736 1439.29 52.4498 1438.85 52.0923C1437.96 51.3724 1437.22 50.4369 1436.85 49.3546C1436.79 49.1676 1436.51 49.2549 1436.56 49.4478C1436.86 50.6603 1437.44 51.7616 1438.33 52.6466C1438.78 53.0839 1439.28 53.4789 1439.84 53.763C1440.12 53.9099 1440.42 54.0352 1440.73 54.1442C1440.87 54.1975 1441.03 54.2292 1441.19 54.2502C1441.39 54.2803 1441.53 54.2326 1441.71 54.1383C1441.84 54.0698 1441.89 53.8573 1441.8 53.7406L1441.8 53.738Z" fill="#373737"/>
<path d="M1436.16 54.8408C1436.64 55.0848 1437.17 55.2524 1437.7 55.2815C1438.09 55.3047 1438.13 54.6983 1437.77 54.6127C1437.43 54.5316 1437.09 54.4666 1436.75 54.3505C1436.45 54.2415 1436.15 54.0951 1435.86 53.9374C1435.26 53.6018 1434.76 53.1452 1434.37 52.5753C1434.33 52.5076 1434.26 52.4806 1434.2 52.4775C1434.81 53.2978 1435.47 54.0874 1436.16 54.8435L1436.16 54.8408Z" fill="#373737"/>
<path d="M1536.35 59.3225C1535.84 59.2102 1535.47 59.6794 1535.1 59.9592C1534.72 60.2473 1534.32 60.5122 1533.91 60.7638C1533.1 61.2728 1532.24 61.6447 1531.31 61.9044C1530.91 62.0147 1531.11 62.6102 1531.51 62.5132C1532.48 62.2811 1533.44 61.9377 1534.34 61.5108C1534.79 61.3003 1535.21 61.0506 1535.62 60.7748C1536.01 60.5075 1536.65 60.1648 1536.6 59.6201C1536.59 59.482 1536.5 59.3519 1536.35 59.3198L1536.35 59.3225Z" fill="#373737"/>
<path d="M1539.82 62.4233C1539.71 62.1663 1539.36 61.968 1539.08 62.0903C1538.24 62.4482 1537.46 62.9902 1536.64 63.3902C1535.81 63.793 1534.96 64.1406 1534.1 64.4673C1532.37 65.1318 1530.58 65.6197 1528.73 65.8564C1528.32 65.9082 1528.34 66.5394 1528.75 66.4953C1530.63 66.2947 1532.52 65.9714 1534.33 65.4479C1535.24 65.1889 1536.12 64.8588 1536.99 64.4919C1537.42 64.3057 1537.85 64.1118 1538.28 63.9046C1538.72 63.6943 1539.21 63.4956 1539.59 63.2019C1539.84 63.0117 1539.96 62.7144 1539.82 62.4182L1539.82 62.4233Z" fill="#373737"/>
<path d="M1540.78 64.4704C1540.4 64.4093 1540.22 64.6184 1539.94 64.8362C1539.71 65.0176 1539.48 65.1964 1539.25 65.3702C1538.75 65.7347 1538.22 66.068 1537.68 66.37C1536.6 66.971 1535.5 67.4795 1534.3 67.8181C1533.95 67.9188 1534.12 68.4323 1534.47 68.3558C1535.71 68.0821 1536.96 67.7018 1538.1 67.1384C1538.66 66.8625 1539.2 66.5554 1539.72 66.2142C1539.99 66.0338 1540.26 65.8482 1540.52 65.647C1540.81 65.4289 1541.1 65.2559 1541.1 64.8639C1541.11 64.6906 1540.96 64.4961 1540.78 64.4677L1540.78 64.4704Z" fill="#373737"/>
<path d="M1544.32 65.6422C1544.13 65.5956 1543.94 65.7172 1543.78 65.811C1543.6 65.9105 1543.43 66.0632 1543.27 66.1887C1542.97 66.4341 1542.67 66.6768 1542.36 66.9093C1541.72 67.3799 1541.05 67.801 1540.35 68.1778C1540.18 68.2721 1540.13 68.5295 1540.24 68.6884C1540.35 68.8708 1540.57 68.8923 1540.75 68.8033C1541.47 68.447 1542.16 68.041 1542.83 67.5881C1543.15 67.366 1543.47 67.128 1543.77 66.8772C1543.93 66.749 1544.09 66.6074 1544.23 66.4586C1544.35 66.3235 1544.54 66.0713 1544.52 65.8804C1544.5 65.7665 1544.44 65.67 1544.32 65.6396L1544.32 65.6422Z" fill="#373737"/>
<path d="M1485.7 68.3852C1485.43 68.3578 1485.22 68.4236 1485.01 68.5966C1484.84 68.7305 1484.69 68.8774 1484.52 69.0113C1484.17 69.3011 1483.81 69.5885 1483.42 69.8369C1482.7 70.2998 1481.91 70.5971 1481.05 70.5296C1480.63 70.4965 1480.56 71.2054 1480.97 71.2599C1481.96 71.3924 1482.9 71.1375 1483.78 70.685C1484.2 70.4645 1484.62 70.2019 1485 69.9058C1485.19 69.7494 1485.39 69.5905 1485.58 69.4263C1485.81 69.2315 1485.97 69.026 1485.98 68.7139C1485.98 68.5779 1485.85 68.3985 1485.7 68.3852Z" fill="#373737"/>
<path d="M1486.72 70.998C1486.14 71.184 1485.75 71.6006 1485.27 71.9538C1484.77 72.3153 1484.24 72.6223 1483.67 72.8531C1482.55 73.3091 1481.33 73.5129 1480.12 73.3855C1479.86 73.3573 1479.62 73.4647 1479.55 73.731C1479.49 73.9542 1479.65 74.2606 1479.9 74.2943C1481.27 74.4663 1482.68 74.3148 1483.97 73.8179C1484.61 73.5738 1485.22 73.2587 1485.78 72.8708C1486.35 72.4773 1486.94 72.0326 1487.07 71.324C1487.11 71.1227 1486.93 70.932 1486.72 70.9981L1486.72 70.998Z" fill="#373737"/>
<path d="M1487.99 73.4932C1487.58 73.748 1487.21 74.0624 1486.8 74.3328C1486.4 74.6004 1485.98 74.8527 1485.55 75.0787C1484.68 75.5336 1483.76 75.8385 1482.79 76.0143C1482.48 76.0708 1482.57 76.6086 1482.88 76.5627C1483.9 76.4169 1484.91 76.1516 1485.86 75.7498C1486.78 75.3596 1487.81 74.8324 1488.46 74.0575C1488.73 73.7388 1488.36 73.2641 1487.99 73.4907L1487.99 73.4932Z" fill="#373737"/>
<path d="M1489.32 76.3218C1489.17 76.2817 1489.05 76.3688 1488.92 76.4292C1488.81 76.4868 1488.68 76.5365 1488.57 76.615C1488.35 76.7856 1488.12 76.9458 1487.88 77.0981C1487.42 77.3918 1486.94 77.6515 1486.44 77.8693C1486.3 77.9303 1486.21 78.0669 1486.26 78.2225C1486.3 78.3595 1486.47 78.4627 1486.61 78.407C1487.16 78.1928 1487.69 77.9392 1488.2 77.6439C1488.44 77.5019 1488.68 77.3495 1488.91 77.1893C1489.05 77.0938 1489.14 76.9837 1489.25 76.8573C1489.34 76.7475 1489.46 76.6312 1489.45 76.4797C1489.44 76.4053 1489.39 76.343 1489.32 76.3244L1489.32 76.3218Z" fill="#373737"/>
<path d="M1499.03 28.3321C1498.87 28.3992 1498.75 28.4729 1498.62 28.5948C1498.53 28.6806 1498.45 28.7689 1498.36 28.852C1498.16 29.0349 1498 29.1738 1497.81 29.322C1497.4 29.6378 1496.97 29.9119 1496.51 30.1468C1496.36 30.2242 1496.32 30.439 1496.39 30.5831C1496.45 30.722 1496.64 30.8405 1496.8 30.7681C1497.31 30.5421 1497.79 30.2769 1498.24 29.9596C1498.47 29.7994 1498.69 29.6263 1498.91 29.4454C1499.01 29.3564 1499.12 29.2673 1499.22 29.1705C1499.34 29.0406 1499.42 28.9074 1499.47 28.7348C1499.56 28.4946 1499.27 28.233 1499.03 28.3267L1499.03 28.3321Z" fill="#373737"/>
<path d="M1500.99 30.0263C1500.61 30.2133 1500.39 30.557 1500.09 30.8503C1499.79 31.1408 1499.46 31.3951 1499.11 31.6156C1498.41 32.0593 1497.64 32.3641 1496.81 32.5056C1496.5 32.5594 1496.59 33.0945 1496.91 33.0539C1497.81 32.9389 1498.69 32.6515 1499.47 32.1811C1499.86 31.9486 1500.22 31.6745 1500.55 31.3694C1500.89 31.0587 1501.26 30.7339 1501.32 30.2571C1501.35 30.0617 1501.17 29.9375 1500.99 30.0237L1500.99 30.0263Z" fill="#373737"/>
<path d="M1504.58 31.6734C1504.44 31.5451 1504.25 31.5733 1504.12 31.69C1503.09 32.6036 1501.83 33.2245 1500.49 33.5125C1500.34 33.5444 1500.27 33.7256 1500.31 33.8575C1500.35 34.013 1500.51 34.0635 1500.65 34.037C1502.11 33.7607 1503.47 33.0939 1504.6 32.1339C1504.73 32.0198 1504.7 31.7837 1504.58 31.6734Z" fill="#373737"/>
<path d="M1501.65 52.9496C1501.55 52.7322 1501.34 52.6624 1501.11 52.7053C1500.72 52.7777 1500.35 52.9668 1499.98 53.0735C1499.63 53.174 1499.27 53.2562 1498.91 53.325C1498.16 53.4718 1497.41 53.5012 1496.65 53.4379C1496.31 53.4099 1496.25 53.9851 1496.59 54.0317C1497.4 54.1414 1498.23 54.1782 1499.04 54.1198C1499.45 54.0893 1499.85 54.0216 1500.25 53.9328C1500.66 53.8408 1501.12 53.7468 1501.48 53.5234C1501.68 53.4046 1501.75 53.1488 1501.65 52.9497L1501.65 52.9496Z" fill="#373737"/>
<path d="M1503.12 54.7227C1502.6 54.8507 1502.11 55.1853 1501.61 55.3819C1501.11 55.5783 1500.59 55.7247 1500.07 55.8288C1499 56.0403 1497.88 56.1604 1496.8 55.9459C1496.5 55.8873 1496.39 56.331 1496.69 56.4056C1497.84 56.7028 1499.03 56.9054 1500.22 56.7295C1500.81 56.6417 1501.4 56.5036 1501.96 56.3048C1502.51 56.1091 1503.17 55.8697 1503.57 55.4236C1503.86 55.0905 1503.54 54.6198 1503.12 54.7199L1503.12 54.7227Z" fill="#373737"/>
<path d="M1502.89 57.5854C1502.79 57.5224 1502.69 57.4698 1502.57 57.4742C1502.47 57.4778 1502.36 57.5192 1502.26 57.5442C1502.1 57.5817 1501.95 57.6191 1501.8 57.6566C1501.48 57.7346 1501.16 57.8126 1500.84 57.8933C1500.65 57.94 1500.53 58.1789 1500.6 58.3578C1500.67 58.5604 1500.86 58.6469 1501.07 58.5996C1501.38 58.5295 1501.71 58.4567 1502.03 58.3867C1502.18 58.3518 1502.33 58.317 1502.49 58.2848C1502.59 58.2625 1502.71 58.2503 1502.79 58.1939C1502.89 58.1319 1502.94 58.042 1503 57.9493C1503.08 57.8186 1503.01 57.6585 1502.89 57.5854Z" fill="#373737"/>
<path d="M1452.44 66.0901C1451.02 66.5888 1449.29 66.5173 1447.98 65.7567C1447.8 65.6563 1447.67 65.9169 1447.83 66.0258C1448.51 66.4945 1449.3 66.8712 1450.13 66.9963C1450.99 67.1282 1451.84 67.0657 1452.66 66.7963C1453.12 66.6467 1452.89 65.9298 1452.44 66.09L1452.44 66.0901Z" fill="#373737"/>
<path d="M1451.23 67.8098C1450.74 67.8619 1450.24 67.9091 1449.75 67.9C1449.25 67.8911 1448.78 67.7989 1448.3 67.6558C1448 67.5628 1447.9 68.0303 1448.19 68.1289C1448.69 68.2925 1449.2 68.402 1449.72 68.4661C1449.99 68.4992 1450.26 68.5215 1450.53 68.5252C1450.8 68.5287 1451.06 68.4792 1451.33 68.4243C1451.68 68.3532 1451.58 67.7731 1451.23 67.8097L1451.23 67.8098Z" fill="#373737"/>
<path d="M1453.75 62.1409C1453.57 61.9474 1453.3 61.9892 1453.06 62.027C1452.82 62.0648 1452.59 62.0999 1452.35 62.1244C1451.9 62.17 1451.44 62.2211 1450.98 62.1467C1450.27 62.031 1449.62 61.6651 1449.3 60.9941C1449.15 60.669 1448.58 60.9266 1448.72 61.26C1449.08 62.0817 1449.83 62.6117 1450.68 62.8506C1451.17 62.9876 1451.7 63.0245 1452.21 62.9929C1452.49 62.9749 1452.77 62.9276 1453.05 62.8802C1453.32 62.8359 1453.7 62.8065 1453.81 62.5171C1453.87 62.3765 1453.86 62.2518 1453.75 62.1408L1453.75 62.1409Z" fill="#373737"/>
<path d="M1358.23 49.2239C1362.28 42.5622 1364.22 34.7389 1369.94 29.1658C1375.37 23.8835 1382.64 20.7284 1388.75 16.3383C1390.16 15.3228 1391.53 14.253 1392.85 13.1156C1394.26 11.9031 1395.66 9.94986 1397.41 9.1807C1398.93 11.1869 1399.37 13.7432 1399.5 16.2228C1399.65 19.1839 1399.52 22.1765 1399.96 25.1193C1400.38 27.8897 1401.46 30.3192 1402.95 32.6782C1404.48 35.1074 1406.2 37.4447 1406.9 40.2769C1407.59 43.0431 1407.69 45.8836 1409.02 48.4584C1410.16 50.646 1411.99 52.4757 1413.98 53.9104C1416.07 55.411 1418.24 56.7963 1420.1 58.5849C1422.08 60.4892 1423.51 62.9009 1425.64 64.6529C1429.8 68.0599 1435.29 69.0734 1438.85 73.2958C1439.26 73.777 1440.16 73.2063 1439.91 72.6343C1438.01 68.3868 1433.1 67.0569 1429.4 64.8463C1426.85 63.3249 1425.22 61.2084 1423.42 58.9113C1421.83 56.8812 1420 55.2142 1418.01 53.5794C1416 51.9242 1413.84 50.2211 1412.25 48.1484C1410.48 45.8396 1409.74 42.9715 1408.81 40.2673C1407.89 37.5868 1406.67 35.2422 1405.21 32.8184C1403.61 30.1674 1402.32 27.6044 1402.13 24.4606C1401.93 21.072 1402.59 17.7274 1402.12 14.3403C1402 13.4836 1401.83 12.6447 1401.6 11.8348C1401.81 12.163 1402.01 12.4706 1402.17 12.7233C1403.37 14.5224 1404.33 16.4363 1405.4 18.3038C1407.46 21.9161 1409.71 24.7331 1413.08 27.2352C1416.37 29.6762 1419.5 31.8885 1421.35 35.6522C1423.1 39.2092 1424.16 43.0442 1426.38 46.3736C1428.36 49.3335 1430.99 51.8995 1433.69 54.2044C1439.95 59.5561 1447.06 63.8676 1452.78 69.8464C1457.69 74.9748 1462.81 83.0464 1470.86 82.7902C1471.6 82.7664 1471.77 81.5474 1470.99 81.4581C1463.34 80.5859 1459.53 73.1687 1454.66 68.1933C1449.4 62.811 1442.74 58.9978 1437.02 54.1329C1434.23 51.7594 1431.69 49.0438 1429.82 45.8856C1427.8 42.482 1426.75 38.6974 1425.08 35.1349C1423.35 31.4467 1420.91 28.6526 1417.52 26.3832C1413.97 24.0075 1410.72 21.9542 1408.12 18.481C1405.65 15.1868 1404.32 11.1832 1401.88 7.88787C1400.84 6.47776 1399.37 5.53088 1397.56 5.61715C1395.45 5.71929 1393.76 7.14453 1392.3 8.51874C1386.66 13.8409 1379.82 17.3965 1373.7 22.096C1370.74 24.3717 1367.94 26.9215 1365.62 29.8511C1363.22 32.8822 1361.46 36.2666 1359.78 39.7251C1358.08 43.2135 1356.44 46.8227 1353.82 49.7442C1351.7 52.1178 1349.01 53.9439 1346.25 55.5593L1346.41 59.9383C1347.77 59.2019 1349.12 58.4446 1350.42 57.6037C1353.74 55.4593 1356.2 52.5723 1358.24 49.2238L1358.23 49.2239Z" fill="#373737"/>
<path d="M1399.57 12.4223C1398.64 13.7268 1397.57 14.9272 1396.39 16.001C1395.81 16.5309 1395.2 17.0246 1394.57 17.5002C1394.26 17.7407 1393.94 17.9733 1393.63 18.2216C1393.35 18.453 1393.04 18.664 1392.92 19.0255C1392.88 19.128 1392.97 19.2635 1393.07 19.2784C1393.47 19.3361 1393.82 19.1291 1394.16 18.9436C1394.51 18.7551 1394.83 18.5305 1395.15 18.2952C1395.83 17.7909 1396.48 17.2347 1397.09 16.6477C1398.3 15.4902 1399.37 14.1992 1400.3 12.8118C1400.61 12.3612 1399.87 11.9903 1399.57 12.4197L1399.57 12.4223Z" fill="#373737"/>
<path d="M1399.99 14.166C1399.55 15.4077 1398.88 16.5512 1398.06 17.5801C1397.65 18.0904 1397.21 18.5649 1396.72 19.0008C1396.49 19.2063 1396.26 19.4118 1396.02 19.6043C1395.74 19.8274 1395.47 20.0451 1395.32 20.3703C1395.23 20.5681 1395.36 20.7981 1395.58 20.7926C1396.26 20.7789 1396.9 20.175 1397.37 19.737C1397.9 19.2491 1398.38 18.7122 1398.8 18.1398C1399.66 16.9952 1400.26 15.6914 1400.65 14.321C1400.76 13.893 1400.12 13.7613 1399.98 14.1635L1399.99 14.166Z" fill="#373737"/>
<path d="M1400.52 19.1638C1400.12 19.8419 1399.63 20.4642 1399.07 21.0202C1398.79 21.2969 1398.48 21.5422 1398.18 21.7982C1398.04 21.918 1397.89 22.0325 1397.75 22.1497C1397.58 22.2808 1397.44 22.4378 1397.29 22.5767C1397.12 22.7293 1397.31 23.0368 1397.52 22.9519C1397.72 22.8757 1397.92 22.8045 1398.1 22.6995C1398.28 22.5945 1398.44 22.4713 1398.6 22.3482C1398.95 22.0881 1399.26 21.7784 1399.55 21.4642C1400.12 20.8493 1400.61 20.1626 1401.01 19.4286C1401.19 19.1078 1400.7 18.8508 1400.52 19.1612L1400.52 19.1638Z" fill="#373737"/>
<path d="M1400.66 26.3049C1400.02 27.4203 1399.22 28.4219 1398.27 29.2902C1397.81 29.7118 1397.32 30.1106 1396.81 30.4753C1396.29 30.8485 1395.73 31.1644 1395.24 31.5766C1395 31.7688 1395.28 32.0813 1395.52 32.0249C1396.17 31.8736 1396.75 31.5171 1397.29 31.1483C1397.86 30.7628 1398.39 30.3309 1398.87 29.847C1399.82 28.9015 1400.63 27.8039 1401.25 26.6222C1401.44 26.242 1400.87 25.9348 1400.66 26.3075L1400.66 26.3049Z" fill="#373737"/>
<path d="M1401.58 29.5362C1401.37 29.4188 1401.15 29.5199 1401.02 29.7057C1400.6 30.3072 1400.1 30.8608 1399.56 31.3573C1399.28 31.6043 1398.99 31.8253 1398.72 32.0671C1398.58 32.1894 1398.42 32.2961 1398.29 32.421C1398.16 32.5402 1397.96 32.6778 1397.92 32.8551C1397.9 32.9653 1397.97 33.072 1398.08 33.1002C1398.25 33.1499 1398.47 33.0353 1398.64 32.9682C1398.83 32.8894 1399.01 32.7737 1399.18 32.6687C1399.54 32.4562 1399.85 32.1837 1400.16 31.9115C1400.76 31.3701 1401.29 30.7595 1401.76 30.1003C1401.89 29.9171 1401.77 29.6335 1401.59 29.5387L1401.58 29.5362Z" fill="#373737"/>
<path d="M1403.43 31.5146C1403.15 31.9699 1402.84 32.4074 1402.5 32.8221C1402.32 33.0308 1402.15 33.2395 1401.99 33.456C1401.91 33.5601 1401.83 33.6643 1401.74 33.766C1401.65 33.8812 1401.52 33.9953 1401.49 34.1454C1401.47 34.258 1401.56 34.4097 1401.69 34.3887C1401.86 34.3641 1401.97 34.2563 1402.09 34.148C1402.19 34.0563 1402.3 33.962 1402.4 33.8677C1402.61 33.6683 1402.79 33.4592 1402.97 33.2317C1403.32 32.7687 1403.64 32.2854 1403.93 31.782C1404.11 31.4636 1403.62 31.2092 1403.43 31.5146Z" fill="#373737"/>
<path d="M1408.09 43.1266C1407.82 44.1863 1407.35 45.1333 1406.76 46.045C1406.47 46.479 1406.15 46.8878 1405.79 47.2684C1405.44 47.6352 1404.91 47.969 1404.75 48.4625C1404.7 48.5946 1404.83 48.742 1404.97 48.7291C1405.52 48.6801 1405.96 48.126 1406.3 47.7405C1406.67 47.3193 1407.01 46.8647 1407.31 46.3876C1407.9 45.4362 1408.28 44.3191 1408.49 43.2216C1408.54 42.964 1408.15 42.8711 1408.09 43.1266Z" fill="#373737"/>
<path d="M1409.2 46.5783C1408.6 48.199 1407.65 49.7337 1406.55 51.0659C1406.01 51.7169 1405.41 52.3274 1404.79 52.8987C1404.46 53.1982 1404.11 53.4666 1403.78 53.7611C1403.51 54.0028 1403.1 54.2279 1403.1 54.6332C1403.1 54.7051 1403.15 54.794 1403.22 54.8235C1403.61 54.9932 1403.99 54.6946 1404.32 54.5014C1404.72 54.2685 1405.08 53.9598 1405.43 53.6619C1406.15 53.0606 1406.78 52.385 1407.35 51.645C1408.49 50.1622 1409.26 48.506 1409.77 46.7127C1409.87 46.3465 1409.33 46.2406 1409.2 46.5809L1409.2 46.5783Z" fill="#373737"/>
<path d="M1410.71 49.9227C1410.48 50.6482 1410.12 51.3406 1409.65 51.9439C1409.42 52.2372 1409.17 52.5127 1408.9 52.7677C1408.76 52.8979 1408.61 53.0206 1408.48 53.1559C1408.41 53.2222 1408.36 53.3092 1408.3 53.3807C1408.24 53.455 1408.16 53.5216 1408.12 53.611C1408.08 53.7032 1408.14 53.845 1408.26 53.8274C1408.36 53.8132 1408.44 53.7758 1408.52 53.7299C1408.62 53.6813 1408.72 53.6457 1408.81 53.5945C1408.97 53.4979 1409.13 53.3216 1409.27 53.1836C1409.55 52.8829 1409.81 52.5592 1410.04 52.2178C1410.5 51.5403 1410.85 50.7895 1411.07 50.0033C1411.13 49.7799 1410.79 49.7041 1410.71 49.92L1410.71 49.9227Z" fill="#373737"/>
<path d="M1412.37 51.5211C1412.25 52.2689 1412.03 52.9777 1411.69 53.6537C1411.52 53.9849 1411.34 54.314 1411.14 54.6275C1411.05 54.7801 1410.94 54.9279 1410.85 55.0832C1410.74 55.2657 1410.6 55.4438 1410.61 55.6647C1410.62 55.8804 1410.82 55.9878 1411.01 55.9462C1411.22 55.9015 1411.37 55.7042 1411.5 55.5475C1411.63 55.3909 1411.74 55.2139 1411.84 55.0421C1412.06 54.6825 1412.24 54.3111 1412.38 53.9141C1412.65 53.1634 1412.82 52.3683 1412.9 51.574C1412.93 51.2744 1412.41 51.2236 1412.37 51.5211Z" fill="#373737"/>
<path d="M1421.65 58.7239C1421.48 59.3858 1421.24 60.0258 1420.93 60.6367C1420.62 61.2502 1420.21 61.8008 1419.87 62.3992C1419.8 62.5216 1419.8 62.6895 1419.88 62.8065C1419.95 62.9027 1420.02 62.9537 1420.13 62.9816C1420.27 63.0168 1420.43 62.9708 1420.52 62.8637C1421 62.3029 1421.3 61.5858 1421.55 60.905C1421.81 60.2322 1422 59.5403 1422.13 58.8348C1422.18 58.529 1421.73 58.4171 1421.65 58.7212L1421.65 58.7239Z" fill="#373737"/>
<path d="M1423.81 61.6639C1423.56 61.6011 1423.36 61.7681 1423.28 61.9923C1422.82 63.2534 1422.15 64.4476 1421.31 65.501C1420.9 66.0195 1420.45 66.5101 1419.98 66.9773C1419.49 67.4639 1418.95 67.899 1418.49 68.4088C1418.31 68.5989 1418.5 68.9492 1418.76 68.8467C1420.1 68.3324 1421.21 67.1706 1422.06 66.058C1422.96 64.885 1423.65 63.5914 1424.14 62.1986C1424.22 61.9719 1424.02 61.7202 1423.81 61.6667L1423.81 61.6639Z" fill="#373737"/>
<path d="M1425.31 64.0304C1425.12 64.7462 1424.85 65.4303 1424.49 66.0775C1424.32 66.3901 1424.13 66.6928 1423.92 66.9828C1423.81 67.1387 1423.71 67.2969 1423.6 67.4553C1423.49 67.6166 1423.38 67.8045 1423.44 68.0101C1423.46 68.0786 1423.53 68.1509 1423.61 68.1615C1424.01 68.2165 1424.32 67.7387 1424.52 67.4544C1424.75 67.1263 1424.95 66.7806 1425.14 66.4275C1425.5 65.7188 1425.78 64.9626 1425.96 64.1859C1426.05 63.7666 1425.42 63.6188 1425.31 64.0333L1425.31 64.0304Z" fill="#373737"/>
<path d="M1420.19 57.0704C1420.13 57.1872 1420.05 57.2911 1420 57.4104C1419.94 57.5296 1419.88 57.6463 1419.82 57.7605C1419.76 57.8692 1419.7 57.9755 1419.63 58.0818C1419.55 58.2155 1419.49 58.2949 1419.41 58.407C1419.41 58.4124 1419.38 58.4481 1419.37 58.4535C1419.36 58.4699 1419.35 58.489 1419.34 58.5055C1419.3 58.5575 1419.26 58.6096 1419.22 58.6591C1419.13 58.7606 1419.05 58.8597 1418.96 58.9536C1418.91 59.0005 1418.87 59.0475 1418.82 59.0944C1418.8 59.111 1418.79 59.1249 1418.77 59.1414C1418.77 59.1441 1418.66 59.2919 1418.7 59.2481C1418.61 59.3685 1418.49 59.4794 1418.46 59.6324C1418.43 59.8041 1418.55 59.9464 1418.72 59.9508C1418.88 59.9557 1419.03 59.8547 1419.16 59.7752C1419.3 59.6931 1419.4 59.5852 1419.51 59.4695C1419.71 59.2599 1419.88 59.0323 1420.04 58.7947C1420.19 58.5761 1420.31 58.3292 1420.42 58.083C1420.47 57.9477 1420.53 57.8125 1420.57 57.6749C1420.62 57.5372 1420.63 57.3983 1420.65 57.251C1420.7 56.9801 1420.32 56.8098 1420.18 57.0732L1420.19 57.0704Z" fill="#373737"/>
<path d="M1418.76 59.1482C1418.76 59.1482 1418.77 59.142 1418.77 59.1388C1418.77 59.1388 1418.77 59.1388 1418.76 59.1482Z" fill="#373737"/>
<path d="M1399.98 23.8231C1399.84 23.7242 1399.59 23.7172 1399.48 23.8705C1399.17 24.3028 1398.82 24.7097 1398.45 25.0856C1398.26 25.2709 1398.07 25.451 1397.87 25.6234C1397.66 25.7986 1397.47 25.9893 1397.27 26.167C1397.15 26.2781 1397.16 26.4962 1397.26 26.6125C1397.38 26.7418 1397.56 26.7752 1397.71 26.6847C1397.95 26.5346 1398.2 26.3792 1398.42 26.1874C1398.63 26.0067 1398.83 25.8156 1399.02 25.6194C1399.42 25.2134 1399.77 24.7742 1400.1 24.312C1400.21 24.1562 1400.12 23.922 1399.98 23.8204L1399.98 23.8231Z" fill="#373737"/>
<path d="M1382.54 34.7654C1381.02 36.8082 1380.45 39.318 1379.76 41.7231C1379.57 42.3614 1379.4 43.0072 1379.21 43.6457C1379.12 43.6969 1379.04 43.7479 1378.95 43.8018C1378.52 44.057 1378.07 44.2596 1377.61 44.4362C1376.64 44.7985 1375.68 44.9769 1374.65 44.9338C1374.21 44.915 1374.25 45.5773 1374.67 45.6099C1375.75 45.6942 1376.89 45.5972 1377.93 45.2857C1378.22 45.1979 1378.51 45.0863 1378.79 44.9616C1378.66 45.3208 1378.51 45.6725 1378.35 46.0194C1378.01 46.7406 1377.59 47.4247 1377.13 48.0862C1376.91 48.1608 1376.68 48.2275 1376.45 48.2811C1375.44 48.5172 1374.45 48.5872 1373.42 48.3895C1373.03 48.313 1372.88 48.9073 1373.28 48.9998C1374.26 49.2311 1375.34 49.3045 1376.35 49.159C1376.2 49.3617 1376.04 49.5644 1375.89 49.7645C1375.51 50.2659 1375.1 50.7524 1374.67 51.2343C1374.59 51.2504 1374.51 51.2693 1374.43 51.2801C1373.64 51.4096 1372.85 51.3981 1372.07 51.2287C1371.64 51.1348 1371.49 51.7746 1371.91 51.8874C1372.54 52.0569 1373.2 52.1372 1373.85 52.1138C1372.21 53.8412 1370.4 55.5077 1368.93 57.3594C1368.78 57.397 1368.62 57.4319 1368.45 57.4432C1368.02 57.4747 1367.63 57.4247 1367.21 57.2851C1367.03 57.225 1366.83 57.3735 1366.79 57.5455C1366.74 57.7498 1366.87 57.9024 1367.05 57.9679C1367.43 58.1089 1367.83 58.1827 1368.23 58.1975C1368.26 58.1966 1368.28 58.1957 1368.31 58.1975C1367.95 58.6979 1367.63 59.2158 1367.34 59.7539C1367.25 59.7572 1367.16 59.7606 1367.06 59.764C1366.81 59.7625 1366.63 59.753 1366.37 59.7036C1365.89 59.6112 1365.5 59.4013 1365.17 59.0375C1365.05 58.9084 1364.83 58.9218 1364.7 59.0274C1364.58 59.1303 1364.51 59.3461 1364.63 59.4832C1365.04 59.9698 1365.57 60.3079 1366.18 60.4778C1366.43 60.5461 1366.69 60.5769 1366.95 60.5596C1366.57 61.4048 1366.29 62.3023 1366.15 63.2672C1366.05 63.8916 1366.92 64.1005 1367.11 63.494C1368.03 60.5475 1369.98 58.2309 1372.23 56.1726C1374.3 54.278 1376.73 52.7489 1378.58 50.6143C1380.34 48.5925 1381.26 46.0964 1381.55 43.4662C1381.85 40.5685 1381.62 37.8768 1383.3 35.3113C1383.59 34.8692 1382.85 34.3383 1382.53 34.7682L1382.54 34.7654Z" fill="#373737"/>
<path d="M1424.15 40.7843C1423.9 40.9504 1423.74 41.1696 1423.53 41.3769C1423.48 41.4294 1423.43 41.4766 1423.37 41.5265C1423.32 41.5709 1423.37 41.5292 1423.34 41.5544C1423.31 41.5767 1423.28 41.5991 1423.25 41.6214C1423.14 41.7027 1423.02 41.7788 1422.9 41.8471C1422.46 42.0948 1421.96 42.2113 1421.42 42.1776C1421.19 42.1642 1421.01 42.3946 1421.02 42.6023C1421.03 42.8445 1421.22 42.9814 1421.45 42.9975C1422.11 43.0457 1422.78 42.8752 1423.36 42.5585C1423.64 42.4017 1423.91 42.2003 1424.14 41.9734C1424.27 41.8517 1424.39 41.7221 1424.47 41.5724C1424.57 41.401 1424.62 41.2341 1424.63 41.0364C1424.64 40.7987 1424.33 40.6632 1424.15 40.7844L1424.15 40.7843Z" fill="#373737"/>
<path d="M1426.39 43.8736C1425.76 44.0108 1425.14 44.23 1424.54 44.4516C1423.93 44.6732 1423.33 44.9132 1422.74 45.1715C1422.29 45.3718 1422.58 46.0196 1423.03 45.7928C1423.6 45.5088 1424.17 45.2432 1424.75 44.9958C1425.33 44.7456 1425.93 44.5322 1426.52 44.2768C1426.77 44.1693 1426.66 43.8158 1426.39 43.8735L1426.39 43.8736Z" fill="#373737"/>
<path d="M1429.61 47.8839C1429.39 47.8041 1429.2 47.9574 1429.01 48.0707C1428.83 48.1812 1428.65 48.2889 1428.47 48.3967C1428.12 48.6011 1427.76 48.7767 1427.38 48.9209C1426.59 49.2182 1425.78 49.3726 1424.94 49.3893C1424.58 49.3968 1424.61 49.9317 1424.96 49.9377C1425.86 49.9563 1426.76 49.8277 1427.62 49.5624C1428.05 49.4327 1428.45 49.2635 1428.85 49.0653C1429.06 48.9648 1429.24 48.8514 1429.43 48.7221C1429.64 48.5761 1429.85 48.4378 1429.84 48.1609C1429.84 48.0198 1429.74 47.93 1429.62 47.8865L1429.61 47.8839Z" fill="#373737"/>
<path d="M1367.43 34.7815C1367.28 34.6002 1367.11 34.4144 1366.93 34.2691C1366.75 34.1263 1366.58 33.9672 1366.42 33.797C1366.38 33.7557 1366.34 33.7144 1366.3 33.6705C1366.29 33.6575 1366.24 33.5953 1366.29 33.6575C1366.27 33.6342 1366.25 33.6135 1366.24 33.5902C1366.17 33.502 1366.1 33.4085 1366.04 33.3148C1365.98 33.2211 1365.92 33.1246 1365.86 33.0253C1365.83 32.9757 1365.8 32.926 1365.78 32.8763C1365.76 32.8501 1365.75 32.8266 1365.74 32.8003C1365.73 32.7872 1365.69 32.6982 1365.72 32.7663C1365.64 32.5906 1365.46 32.4506 1365.26 32.5245C1365.08 32.5895 1364.93 32.7972 1365.01 32.989C1365.22 33.4855 1365.49 33.9314 1365.84 34.3401C1366.17 34.7359 1366.58 35.1292 1367.11 35.2329C1367.22 35.258 1367.35 35.2135 1367.42 35.1124C1367.48 35.0222 1367.51 34.8694 1367.43 34.7761L1367.43 34.7815Z" fill="#373737"/>
<path d="M1372.39 34.4543C1372.26 34.4109 1372.15 34.3403 1372.02 34.305C1371.89 34.2696 1371.75 34.2557 1371.62 34.2257C1371.38 34.168 1371.13 34.1076 1370.89 34.0309C1370.4 33.8805 1369.93 33.6519 1369.51 33.374C1368.64 32.8133 1367.95 32.0198 1367.51 31.0919C1367.34 30.7354 1366.72 31.019 1366.88 31.3865C1367.35 32.4785 1368.11 33.392 1369.09 34.0631C1369.57 34.3924 1370.1 34.6453 1370.66 34.8334C1370.94 34.9274 1371.22 34.9947 1371.51 35.0295C1371.65 35.0458 1371.8 35.0697 1371.94 35.062C1372.1 35.0564 1372.26 34.9921 1372.41 34.952C1372.67 34.8812 1372.61 34.537 1372.39 34.4596L1372.39 34.4543Z" fill="#373737"/>
<path d="M1371.96 31.6631C1371.84 31.5287 1371.68 31.5077 1371.52 31.4494C1371.39 31.401 1371.26 31.3524 1371.13 31.2851C1370.86 31.1481 1370.61 30.9836 1370.4 30.7728C1369.9 30.2921 1369.61 29.6627 1369.33 29.0492C1369.28 28.9338 1369.16 28.8525 1369.03 28.8946C1368.92 28.9307 1368.83 29.0725 1368.88 29.1907C1369.18 29.9075 1369.5 30.6477 1370.02 31.2368C1370.25 31.5029 1370.54 31.7459 1370.87 31.8914C1371.18 32.0296 1371.69 32.2031 1371.96 31.9108C1372.04 31.8336 1372.02 31.7302 1371.96 31.6579L1371.96 31.6631Z" fill="#373737"/>
<path d="M1372.87 28.7201C1372.8 28.6744 1372.74 28.626 1372.68 28.5749C1372.63 28.534 1372.67 28.57 1372.68 28.6069C1372.66 28.5517 1372.63 28.5075 1372.58 28.4719C1372.54 28.444 1372.5 28.4241 1372.46 28.4015C1372.38 28.3589 1372.31 28.3136 1372.24 28.2655C1372.2 28.2454 1372.17 28.2226 1372.14 28.1997C1372.13 28.1946 1372.13 28.1946 1372.14 28.1972C1372.14 28.1972 1372.13 28.1921 1372.12 28.187C1372.1 28.1743 1372.09 28.1617 1372.07 28.1489C1371.94 28.0497 1371.81 27.9422 1371.69 27.8292C1371.63 27.7727 1371.58 27.7134 1371.52 27.6541C1371.49 27.6232 1371.46 27.5896 1371.43 27.5586C1371.42 27.5457 1371.41 27.5328 1371.4 27.5198C1371.39 27.512 1371.39 27.512 1371.39 27.5095C1371.39 27.5095 1371.39 27.5042 1371.38 27.4913C1371.29 27.3851 1371.14 27.3239 1371.01 27.4111C1370.91 27.4842 1370.84 27.6572 1370.93 27.7738C1371.16 28.0588 1371.42 28.3188 1371.71 28.5403C1371.86 28.655 1372.01 28.7613 1372.17 28.8569C1372.21 28.8795 1372.25 28.9022 1372.28 28.9222C1372.33 28.9445 1372.38 28.9614 1372.43 28.9595C1372.44 28.9594 1372.44 28.9592 1372.44 28.9591C1372.44 28.9591 1372.45 28.959 1372.45 28.9588C1372.53 28.9935 1372.63 29.0031 1372.71 29.0188C1372.79 29.0348 1372.87 28.9999 1372.91 28.9319C1372.94 28.8694 1372.93 28.7684 1372.87 28.7225L1372.87 28.7201Z" fill="#373737"/>
<path d="M1393.38 63.0603C1393.24 63.0304 1393.14 62.997 1393 63.0099C1392.87 63.0223 1392.75 63.0214 1392.62 63.0286C1392.37 63.0459 1392.11 63.0709 1391.85 63.0616C1391.36 63.0445 1390.87 62.9367 1390.41 62.7665C1390.24 62.7033 1390.04 62.8413 1389.98 62.9979C1389.93 63.1545 1389.98 63.3872 1390.15 63.4556C1390.7 63.6678 1391.26 63.7943 1391.85 63.8292C1392.12 63.8438 1392.39 63.8447 1392.65 63.8085C1392.81 63.7869 1392.96 63.7441 1393.11 63.6987C1393.28 63.6503 1393.37 63.5615 1393.49 63.4532C1393.63 63.3311 1393.54 63.0998 1393.38 63.063L1393.38 63.0603Z" fill="#373737"/>
<path d="M1395.96 64.8179C1395.55 64.6593 1395.08 65.0518 1394.7 65.2013C1394.29 65.3626 1393.86 65.4713 1393.42 65.5084C1392.53 65.5857 1391.64 65.4123 1390.85 64.9819C1390.4 64.7317 1390.02 65.4356 1390.47 65.6913C1391.37 66.1949 1392.42 66.4212 1393.45 66.3417C1393.95 66.3025 1394.45 66.2019 1394.92 66.0251C1395.32 65.8776 1396.13 65.5847 1396.11 65.0681C1396.11 64.9723 1396.05 64.8519 1395.95 64.8153L1395.96 64.8179Z" fill="#373737"/>
<path d="M1394.46 67.7097C1393.95 67.8584 1393.49 68.0882 1392.97 68.2029C1392.49 68.3051 1391.99 68.3469 1391.51 68.3615C1390.47 68.3909 1389.44 68.1637 1388.54 67.6498C1388.32 67.527 1388.15 67.8556 1388.35 67.9868C1389.29 68.5902 1390.37 68.9915 1391.49 69.1061C1392.06 69.1655 1392.61 69.1326 1393.17 69.0297C1393.72 68.9301 1394.35 68.7851 1394.81 68.4647C1395.2 68.195 1394.93 67.5729 1394.46 67.7097Z" fill="#373737"/>
</g>
<defs>
<clipPath id="clip0_2175_26">
<rect width="209.724" height="80.4999" fill="white" transform="translate(1344.53 7.51562) rotate(-2.05031)"/>
</clipPath>
</defs>
</svg>