<svg xmlns="http://www.w3.org/2000/svg" width="54" height="29" viewBox="0 0 54 29" fill="none">
<path d="M5.5 12.5L2.5 14.5L1.5 18L3.5 22L9.5 25.5L23 26L35.5 25H44L49.5 23.5L52 21L51.5 16.5L47.5 12.5L42.5 12L41.5 9.5L38 6L34 5L30 8L28 4.5L24.5 3L19 3.5L14.5 7L10 13.5L8.5 13L5.5 12.5Z" fill="#E3D9D1"/>
<path d="M2.50825 22.4814C4.98165 25.5699 8.73804 26.7519 12.5707 26.965C17.2044 27.2194 21.9278 26.612 26.548 26.3168C27.1869 26.2752 27.8258 26.2294 28.4648 26.1837C32.4418 26.3808 36.4458 26.4969 40.404 26.3369C44.288 26.1788 49.4372 26.5393 51.832 22.815C53.6378 20.0068 53.1762 16.03 50.8439 13.6383C48.7957 11.5382 45.7546 10.8211 42.9278 11.2825C42.6921 7.61183 39.9003 4.43556 35.9783 4.17867C33.851 4.04301 31.904 4.81853 30.5054 6.14787C29.8611 4.30851 28.6791 2.71881 26.9816 2.06789C23.3868 0.694284 18.4199 1.92112 15.5919 4.35346C14.0788 5.65466 12.8949 7.2529 11.8038 8.9155C11.0221 10.1042 10.3078 11.2335 9.82425 12.501C7.81989 10.599 4.52009 10.6073 2.50307 12.8722C0.0911722 15.5797 0.297294 19.7206 2.50825 22.4814ZM4.88516 14.0606C6.2828 12.9157 8.43741 13.4046 9.48506 14.7934C9.90169 15.3472 10.8354 15.2082 10.9745 14.4913C11.2821 12.8946 12.4113 11.4913 13.3396 10.2089C14.2209 8.9905 15.1148 7.76024 16.1972 6.70793C18.5143 4.45232 21.8963 3.55741 25.0994 4.07065C27.2088 4.40654 28.5125 6.79903 28.651 9.07754C28.404 9.82385 28.283 10.6274 28.3011 11.4597C28.2216 11.654 28.126 11.8395 28.0183 12.0124C27.3298 13.1056 26.0587 13.8406 24.7541 13.8534C23.9393 13.8609 22.9358 13.5511 22.5125 12.7922C21.9989 11.8789 22.681 10.7199 23.6979 11.2883C24.8201 11.9172 25.6294 10.1803 24.5656 9.52449C23.0688 8.60525 21.0537 9.31719 20.3639 10.898C19.569 12.7132 20.6061 14.7778 22.2724 15.6655C25.4267 17.345 29.5074 15.435 30.6627 12.1968C31.0019 11.2403 31.1364 10.1012 31.0619 8.92697C32.0614 7.45412 33.6886 6.48839 35.6636 6.62752C38.772 6.84688 40.8445 9.70169 40.2964 12.7047C40.122 13.654 41.057 14.5026 41.9879 14.1668C44.5768 13.239 48.0782 13.6755 49.6075 16.2389C51.0033 18.5769 50.1327 21.783 47.4793 22.6636C44.2364 23.739 40.5447 23.0426 37.187 23.0614C33.6607 23.079 30.138 23.2607 26.6193 23.4466C22.219 23.6789 17.7802 24.1107 13.3706 24.0805C9.68086 24.0562 5.18183 22.9495 3.72922 19.1018C3.08916 17.406 3.43694 15.2491 4.88505 14.0647L4.88516 14.0606Z" fill="#3C3C3C"/>
</svg>