<svg xmlns="http://www.w3.org/2000/svg" width="90" height="60" viewBox="0 0 90 60" fill="none">
<path d="M55.2847 13.452L48.5405 7.05422L45.668 3.8765L39.1737 3.60112L31.5553 6.33398L24.2283 14.1724L23.8745 22.8158L23.5415 30.9508L21.1061 29.3196L13.675 27.4765L6.88925 34.3192L3.55883 42.3271L3.24662 49.9537L7.57621 54.2118L43.5866 54.7202L70.6049 54.8472L83.1773 53.343L85.8832 48.3646L86.0914 43.2802L81.2206 40.0178L74.2267 39.7212L74.3307 37.179L71.5623 31.4591L66.6291 29.722L58.636 29.383L58.9274 22.2649L55.2847 13.452Z" fill="#E3D9D1"/>
<path d="M85.3584 40.6311C88.2075 43.6966 88.5622 48.1625 86.1046 51.5425C81.1657 58.3389 72.0767 56.9794 63.9313 56.4917C56.5243 56.852 49.1379 56.8909 41.7177 56.8535C31.3018 56.794 20.8756 56.9813 10.4692 56.3302C7.09065 56.127 3.65708 54.9324 1.954 51.7506C-0.515643 47.1501 0.36359 40.9608 2.42035 36.4024C5.4721 29.6608 13.2156 22.8783 20.7573 27.1394C20.5589 25.6923 20.5089 24.2141 20.4825 22.8792C20.4124 20.0964 20.7154 17.1945 21.5536 14.5251C23.0159 9.91903 26.106 5.65917 30.4633 3.53611C34.5128 1.55736 40.515 0.980175 44.8108 2.33872C45.9155 2.69277 46.9842 3.20265 48.004 3.83035C54.567 6.82108 59.0723 13.6733 60.7457 20.9975C61.2722 22.8855 61.561 24.8234 61.5852 26.7502C65.1689 25.7182 68.9834 26.2471 72.1283 28.7408C75.1945 31.1786 76.554 34.6605 76.49 38.3818C79.6373 37.5786 82.9396 38.0259 85.351 40.6308L85.3584 40.6311ZM84.1619 46.6571C84.1414 46.0793 84.034 45.4678 83.796 44.8058C83.2943 43.3908 82.29 42.2018 81.0706 41.4158C79.2707 40.7775 77.0749 40.9991 75.4922 42.0709C74.4999 42.7482 73.146 41.8291 73.1631 40.6909C73.2712 34.4539 67.0384 29.3342 61.1241 31.1814C60.7045 32.9769 59.9988 34.7453 58.9659 36.4174C56.7737 39.966 53.1858 42.7211 48.8977 42.0747C44.8873 41.4775 41.6757 38.2767 40.7943 34.2681C40.0329 30.7441 41.2429 26.0075 45.0529 24.8428C48.6091 23.7647 51.7306 26.8268 51.1436 30.3761C50.8291 32.3034 47.8928 31.7293 47.894 29.9011C47.9004 28.3053 45.945 29.1291 45.4785 29.7312C45.2997 29.9634 45.1705 30.2427 45.0697 30.5456C45.0351 30.6715 45.0083 30.7902 44.9893 30.8943C44.9167 31.2284 44.843 31.585 44.7916 31.9425C44.5981 33.9724 45.4566 36.384 47.1994 37.5144C50.0473 39.3511 54.2592 36.1054 55.6927 33.641C57.2206 31.0308 57.4955 27.7306 57.0937 24.7764C56.4821 20.2922 54.2089 16.1121 51.2606 12.7726C48.7839 9.96266 45.7394 6.8139 41.8864 6.32833C39.4548 6.01542 36.441 5.89509 34.1113 6.8678C31.3544 8.02469 29.2196 11.2535 27.971 13.8756C25.1539 19.743 25.2804 26.5444 25.4908 32.9148C25.5346 34.5427 23.3966 34.6094 22.8683 33.3057C22.7752 33.2418 22.6678 33.1698 22.5759 33.076C20.1476 30.5228 16.0932 29.5641 12.9023 31.0698C9.6665 32.596 7.66001 35.7479 6.55906 39.0805C5.49057 42.3396 4.60597 46.3183 6.6986 49.3368C8.42189 51.845 10.8293 52.7489 13.7461 52.7227C20.7501 52.675 27.7534 52.6423 34.7605 52.6996C42.1062 52.7563 49.4592 52.8209 56.8046 52.7052C58.9266 52.6678 61.0895 52.7071 63.2605 52.7317C67.6981 52.4254 72.19 52.5934 76.6306 52.0324C79.8132 51.6279 83.6269 50.1935 84.1772 46.6427L84.1619 46.6571Z" fill="#373737"/>
</svg>