<svg xmlns="http://www.w3.org/2000/svg" width="1728" height="237" viewBox="0 0 1728 237" fill="none">
<path d="M-77 121.834C-45.8077 114.497 -16.7523 97 14.7168 97C40.0758 97 65.0873 101.139 90.4364 101.139C110.383 101.139 130.33 101.139 150.277 101.139C160.271 101.139 170.264 101.139 180.257 101.139C195.931 101.139 210.938 109.417 226.827 109.417C251.399 109.417 276.162 125.973 300.769 125.973C330.56 125.973 362.639 139.316 392.249 126.893C416.607 116.673 445.001 130.112 469.627 130.112C497.987 130.112 526.337 138.39 554.708 138.39C580.056 138.39 606.587 142.564 631.85 137.471C661.781 131.436 692.1 129.276 722.144 133.331C769.385 139.709 818.243 136.722 865.526 138.39C904.061 139.75 944.017 141.229 982.246 132.182C1004.33 126.956 1026.85 130.102 1048.96 125.053C1070.25 120.193 1091.24 113.556 1112.71 113.556C1156.03 113.556 1198.78 108.796 1241.99 105.508C1284.13 102.301 1326.14 97 1368.31 97C1415.38 97 1461.81 102.427 1508.73 108.497C1557.09 114.754 1604.86 109.417 1653.29 109.417C1691.58 109.417 1730.12 117.695 1768 117.695" stroke="#9AC7B3" stroke-width="193" stroke-linecap="round"/>
</svg>