<svg id="icon-brands-sxsw" xmlns="http://www.w3.org/2000/svg" width="88" height="21" viewBox="0 0 88 21" fill="none">
  <path
    d="M3.96806 1.91245C5.25851 1.20426 6.76601 0.987195 8.2213 1.06706C9.04417 1.10836 9.86499 1.25033 10.6418 1.52815C11.6609 1.89129 12.5995 2.51689 13.2629 3.37832C13.9298 4.22849 14.3264 5.26842 14.4862 6.3319C14.5848 6.97423 14.6005 7.62576 14.592 8.27423C13.1687 8.27627 11.7455 8.27218 10.3227 8.27627C10.324 7.61313 10.3083 6.93054 10.0636 6.3046C9.8783 5.81143 9.53189 5.37627 9.07284 5.11279C8.62745 4.86706 8.11141 4.77013 7.60629 4.77423C7.25578 4.7831 6.89639 4.81928 6.57318 4.96535C6.21175 5.12303 5.89229 5.40597 5.74758 5.77866C5.5295 6.3244 5.54042 6.98754 5.8783 7.4831C6.16567 7.89163 6.62915 8.12917 7.08991 8.28958C8.10561 8.62679 9.11994 8.96808 10.135 9.30699C11.1305 9.6476 12.1138 10.0722 12.9527 10.7176C13.7237 11.3012 14.3285 12.1152 14.6196 13.0408C14.8674 13.838 14.9377 14.6841 14.8718 15.5145C14.824 16.0899 14.7237 16.6647 14.5234 17.2077C14.1681 18.1851 13.5288 19.0636 12.6814 19.6708C11.6237 20.449 10.3223 20.8258 9.02745 20.9459H6.97011C6.43223 20.8718 5.89161 20.8008 5.36806 20.6514C4.16363 20.334 3.01209 19.6988 2.22301 18.7189C1.62438 17.9858 1.23803 17.095 1.04861 16.1715C0.969086 15.7998 0.926083 15.422 0.891271 15.0442C0.866015 14.6367 0.882738 14.2278 0.878643 13.8196C2.31072 13.8196 3.74247 13.8193 5.17421 13.82C5.16977 14.3869 5.18001 14.966 5.35816 15.5101C5.52847 16.0657 5.88683 16.5742 6.38956 16.8749C6.96601 17.2251 7.6609 17.3152 8.32404 17.2834C8.81516 17.2551 9.32574 17.1268 9.70697 16.8002C10.0558 16.5043 10.2247 16.0398 10.2288 15.5903C10.2329 15.1718 10.1309 14.7271 9.83257 14.4176C9.44178 14.0002 8.8824 13.8125 8.35032 13.6479C7.59707 13.407 6.84042 13.1749 6.08547 12.9384C5.67045 12.8029 5.24997 12.6814 4.84383 12.5203C3.94349 12.18 3.08308 11.6879 2.41653 10.9848C1.92813 10.4718 1.57352 9.83976 1.35543 9.16774C1.16875 8.59709 1.09195 7.99641 1.06499 7.39846C1.01857 6.2616 1.22847 5.09743 1.77557 4.09231C2.27523 3.1732 3.04827 2.40904 3.96806 1.91245Z"
    fill="currentColor" />
  <path
    d="M35.2165 1.13493C36.2226 1.0025 37.2502 1.02947 38.2496 1.20523C39.0209 1.34551 39.7769 1.59568 40.4601 1.98373C41.4687 2.54619 42.2844 3.44039 42.7642 4.48953C43.3175 5.6653 43.4496 6.98988 43.4107 8.27452C41.9881 8.27486 40.5656 8.27418 39.1431 8.27486C39.1496 7.64858 39.1335 7.00728 38.9243 6.41001C38.7492 5.88885 38.4069 5.41104 37.9264 5.13254C37.4018 4.82503 36.7735 4.7438 36.1752 4.78578C35.6653 4.82025 35.1311 4.99943 34.7963 5.40387C34.4011 5.89602 34.3294 6.60046 34.5421 7.18544C34.7079 7.62401 35.0984 7.93151 35.511 8.12674C35.8431 8.28271 36.1997 8.37554 36.5438 8.5008C37.0878 8.68237 37.6322 8.8636 38.1765 9.04483C38.7745 9.24721 39.3782 9.43663 39.9584 9.68715C40.9796 10.1165 41.9632 10.7121 42.6653 11.5841C43.0752 12.0974 43.3632 12.7032 43.5291 13.3377C43.6721 13.8813 43.7148 14.4462 43.7161 15.0069C43.7124 15.7861 43.5881 16.5687 43.311 17.2984C42.9414 18.2957 42.2492 19.1626 41.3752 19.765C40.3448 20.4786 39.1038 20.8244 37.8677 20.9459H35.9178C34.8284 20.8428 33.7335 20.609 32.7595 20.094C31.7086 19.5557 30.8386 18.6653 30.3455 17.5906C29.7892 16.4206 29.6683 15.0994 29.6973 13.8199C31.1308 13.8192 32.5642 13.8196 33.9977 13.8196C33.9874 14.4783 34.0144 15.1592 34.2782 15.7732C34.4892 16.2827 34.8799 16.7185 35.3752 16.9653C35.9557 17.2561 36.6233 17.3237 37.2636 17.2742C37.7424 17.2315 38.2383 17.0848 38.5919 16.7438C38.9352 16.4145 39.0748 15.9192 39.0496 15.4534C39.0304 15.1148 38.9468 14.7646 38.7257 14.4988C38.4158 14.1165 37.9513 13.9052 37.4946 13.753C36.5291 13.4332 35.553 13.1452 34.5837 12.8366C33.7373 12.5697 32.8932 12.2551 32.1547 11.7537C31.2209 11.1431 30.4898 10.2114 30.1704 9.138C29.8021 7.91411 29.7905 6.58885 30.1001 5.35097C30.4045 4.19568 31.0827 3.1322 32.0366 2.4066C32.9516 1.69636 34.0758 1.29226 35.2165 1.13493Z"
    fill="currentColor" />
  <path
    d="M67.9043 1.34083C69.577 1.32718 71.2504 1.33844 72.9234 1.33673C72.9251 3.18588 72.9234 5.03468 72.9238 6.88383C72.9309 8.57428 72.907 10.2651 72.9367 11.9555C74.4941 10.378 76.0715 8.82103 77.6401 7.25448C79.6197 5.27974 81.5992 3.30465 83.578 1.32922C84.8173 2.5654 86.0531 3.80499 87.2913 5.04253C84.1613 8.16677 81.0292 11.2886 77.8988 14.4122C77.4674 14.8347 77.0517 15.2726 76.6091 15.6831C80.1664 15.704 83.7238 15.6896 87.2811 15.6941C87.2831 17.3657 87.2825 19.0374 87.2821 20.7091C80.8234 20.7094 74.3651 20.7094 67.9063 20.7091C67.904 14.2528 67.9098 7.7968 67.9043 1.34083Z"
    fill="currentColor" />
  <path
    d="M14.4381 1.41928C16.1552 1.41928 17.8723 1.4186 19.5893 1.41997C20.4689 3.11178 21.3484 4.80393 22.2279 6.49608C22.2791 6.59232 22.3231 6.693 22.3869 6.78208C22.4491 6.70358 22.4876 6.61075 22.5347 6.52304C23.4187 4.82201 24.303 3.12065 25.1869 1.41963C26.834 1.41963 28.4808 1.4186 30.1276 1.41724C28.3661 4.50222 26.5842 7.5756 24.8299 10.6647C26.7238 13.9794 28.6101 17.2985 30.4962 20.6179C28.7798 20.6224 27.063 20.6118 25.3467 20.6169C25.1371 20.2633 24.9518 19.8951 24.7521 19.536C23.8904 17.9486 23.0272 16.3623 22.1637 14.7763C22.1555 14.7753 22.1388 14.7729 22.1306 14.7718C21.088 16.7196 20.0484 18.6691 19.0074 20.6179C17.3504 20.6186 15.6938 20.6186 14.0371 20.6179C15.9252 17.3462 17.8142 14.0753 19.7026 10.8036C18.2142 8.14932 16.7228 5.49642 15.2334 2.84249C14.9692 2.36775 14.6972 1.8971 14.4381 1.41928Z"
    fill="currentColor" />
  <path
    d="M43.9121 1.4196C45.5077 1.41891 47.1036 1.41891 48.6991 1.4196C49.3694 5.53291 50.0398 9.64622 50.7128 13.7592C50.7527 13.7565 50.7923 13.7493 50.8319 13.7373C51.4343 9.62984 52.049 5.52403 52.6565 1.41721C54.079 1.41584 55.5015 1.41823 56.9244 1.41618C56.9633 1.42642 57.0514 1.38786 57.0527 1.45543C57.6599 5.55646 58.2691 9.65714 58.8746 13.7582C58.9145 13.7483 58.9978 13.7807 58.9964 13.7121C59.6421 9.76909 60.2862 5.82574 60.9282 1.8824C60.9623 1.73052 60.9616 1.56397 61.0148 1.42062C62.5039 1.41618 63.993 1.42165 65.4821 1.41823C64.8879 4.64724 64.2746 7.87318 63.6732 11.1012C63.077 14.2739 62.4882 17.4479 61.8872 20.6196C60.1104 20.6158 58.3333 20.6199 56.5561 20.6175C55.9572 16.5135 55.3572 12.409 54.7575 8.30492C54.7292 8.30629 54.6718 8.30868 54.6432 8.3097C54.0401 12.4121 53.4418 16.5155 52.8415 20.6186C51.0633 20.6175 49.2855 20.6189 47.5077 20.6179C46.309 14.2182 45.1101 7.81892 43.9121 1.4196Z"
    fill="currentColor" />
  <path
    d="M64.2326 18.6687C64.648 18.5578 65.1333 18.7291 65.3606 19.1008C65.6606 19.5585 65.5244 20.2544 65.0473 20.5373C64.5862 20.839 63.8872 20.681 63.6196 20.194C63.3828 19.7988 63.4565 19.254 63.778 18.9278C63.9005 18.7994 64.063 18.7162 64.2326 18.6687ZM64.3012 18.837C63.793 18.9383 63.5251 19.5708 63.7442 20.024C63.8691 20.3336 64.206 20.5261 64.5347 20.5145C64.806 20.5059 65.0719 20.354 65.2067 20.1162C65.4036 19.7899 65.3657 19.3312 65.0927 19.0588C64.89 18.8564 64.5794 18.7653 64.3012 18.837Z"
    fill="currentColor" />
  <path
    d="M64.0673 19.1159C64.3171 19.1288 64.5745 19.0855 64.8181 19.1592C65.0632 19.2421 65.07 19.6643 64.8072 19.7295C64.9898 19.8114 64.9727 20.0374 65.0014 20.2029C64.9048 20.2002 64.8089 20.1967 64.7137 20.1923C64.6922 20.0892 64.6898 19.9793 64.6431 19.8838C64.5594 19.8138 64.4413 19.8479 64.3427 19.8415C64.342 19.9592 64.3427 20.0769 64.3431 20.195C64.2506 20.1978 64.1584 20.1981 64.0666 20.1961C64.0669 19.836 64.0656 19.4759 64.0673 19.1159ZM64.3437 19.3435C64.3424 19.4377 64.342 19.5319 64.3431 19.6264C64.4448 19.6217 64.5564 19.6408 64.6519 19.5937C64.74 19.5517 64.7318 19.4063 64.642 19.3708C64.5482 19.3305 64.442 19.3479 64.3437 19.3435Z"
    fill="currentColor" />
</svg>
